<svg width="182" height="181" viewBox="0 0 182 181" fill="none" xmlns="http://www.w3.org/2000/svg">
<path d="M51.6558 0C23.5611 0 0.783691 22.7774 0.783691 50.8721V160.473L29.9343 131.335C32.2723 128.997 35.2138 127.652 38.2432 127.274C30.9902 116.841 26.7288 104.17 26.7288 90.5063C26.7288 54.8569 55.628 25.9577 91.2774 25.9577C126.927 25.9577 155.826 54.8569 155.826 90.5063C155.826 126.156 126.927 155.055 91.2774 155.055C77.4249 155.055 64.6032 150.68 54.0944 143.251C53.7047 146.243 52.3597 149.147 50.0593 151.46L20.5191 181H130.912C159.006 181 181.784 158.223 181.784 130.128V0H51.6558Z" fill="#EEF2F5"/>
<path d="M91.288 47.4781C67.5175 47.4781 48.2598 66.7484 48.2598 90.5063C48.2598 114.264 67.5301 133.535 91.288 133.535C115.046 133.535 134.316 114.264 134.316 90.5063C134.316 81.9459 131.802 73.9764 127.49 67.2638C124.423 71.6886 119.32 74.5923 113.537 74.5923C104.16 74.5923 96.5675 66.9998 96.5675 57.6224C96.5675 54.153 97.6108 50.9224 99.3958 48.2449C96.7686 47.7421 94.0534 47.4656 91.2754 47.4656L91.288 47.4781Z" fill="#EEF2F5"/>
</svg>
