<svg width="22" height="20" viewBox="0 0 22 20" fill="none" xmlns="http://www.w3.org/2000/svg">
<path d="M5.99465 0.698029C3.06156 0.698029 0.683594 3.07897 0.683594 6.01572V17.4723L3.72692 14.4265C3.97102 14.1821 4.2781 14.0415 4.59438 14.0021C3.83716 12.9115 3.39227 11.587 3.39227 10.1587C3.39227 6.43226 6.40935 3.41141 10.1312 3.41141C13.853 3.41141 16.87 6.43226 16.87 10.1587C16.87 13.8852 13.853 16.906 10.1312 16.906C8.68496 16.906 7.34637 16.4488 6.24925 15.6722C6.20856 15.9849 6.06814 16.2884 5.82798 16.5302L2.74397 19.6181H14.269C17.2021 19.6181 19.58 17.2371 19.58 14.3004V0.698029H5.99465Z" fill="#1550E5"/>
<path d="M10.1347 5.66028C7.65309 5.66028 5.64258 7.67462 5.64258 10.158C5.64258 12.6415 7.6544 14.6558 10.1347 14.6558C12.6151 14.6558 14.6269 12.6415 14.6269 10.158C14.6269 9.26322 14.3644 8.43016 13.9143 7.72849C13.5941 8.19101 13.0613 8.49454 12.4576 8.49454C11.4786 8.49454 10.6859 7.7009 10.6859 6.72067C10.6859 6.35801 10.7948 6.02031 10.9812 5.74043C10.7069 5.68787 10.4234 5.65897 10.1334 5.65897L10.1347 5.66028Z" fill="#1550E5"/>
</svg>
