<svg width="766" height="138" viewBox="0 0 766 138" fill="none" xmlns="http://www.w3.org/2000/svg">
<g opacity="0.1" clip-path="url(#clip0_3653_2432)">
<path d="M556.449 85.6464V136.73H532.395V85.7034C532.395 71.6031 521.625 60.1614 508.34 60.1614C495.055 60.1614 484.286 71.5936 484.286 85.7034V136.73H460.232V0H484.286V41.3989C491.358 37.0502 499.576 34.5624 508.34 34.5624C517.104 34.5624 525.322 37.0502 532.395 41.3989C546.781 50.2295 556.449 66.7416 556.449 85.6464Z" fill="#00D3D0"/>
<path d="M717.589 34.5624C708.825 34.5624 700.616 37.0597 693.544 41.4179V0H669.552V85.6464C669.552 104.542 679.203 121.044 693.544 129.875C700.616 134.233 708.825 136.73 717.589 136.73C744.114 136.73 765.626 113.857 765.626 85.6464C765.626 57.4363 744.123 34.5624 717.589 34.5624ZM717.589 111.236C704.304 111.236 693.544 99.8037 693.544 85.6939C693.544 71.5841 704.304 60.1519 717.589 60.1519C730.874 60.1519 741.634 71.5841 741.634 85.6939C741.634 99.8037 730.874 111.236 717.589 111.236Z" fill="#00D3D0"/>
<path d="M655.587 34.5047V91.9885C655.587 109.811 645.794 125.203 631.623 132.39C626.144 135.172 620.012 136.73 613.54 136.73C607.067 136.73 600.971 135.182 595.51 132.419C581.312 125.231 571.492 109.83 571.492 91.9885V34.5047H595.51V92.0169C595.51 102.623 603.594 111.226 613.566 111.226C623.539 111.226 631.623 102.623 631.623 92.0169V34.5047H655.587Z" fill="#00D3D0"/>
<path d="M225.564 91.8459C223.479 88.3707 220.703 85.4747 217.337 83.2623C214.007 81.0689 210.274 79.3123 206.228 78.021C202.235 76.7486 198.207 75.7041 194.268 74.935C187.124 73.3968 181.646 71.9345 178.002 70.5767C174.654 69.3329 173.034 67.3769 173.034 64.5948C173.034 62.1165 174.153 59.9706 176.462 58.0431C178.799 56.0871 182.532 55.0996 187.545 55.0996C191.958 55.0996 195.897 56.0586 199.245 57.9577C202.584 59.8472 205.225 62.4584 207.096 65.7057L207.517 66.4368L227.99 56.1726L227.471 55.2705C223.693 48.6619 218.483 43.3636 211.984 39.518C205.485 35.682 197.267 33.7355 187.545 33.7355C181.798 33.7355 176.489 34.5616 171.78 36.1852C167.054 37.8184 162.963 40.0688 159.623 42.8888C156.266 45.7184 153.626 49.0227 151.772 52.7163C149.91 56.4289 148.962 60.3409 148.962 64.3479C148.962 69.5892 150 74.014 152.041 77.5272C154.073 81.0024 156.759 83.8985 160.017 86.1108C163.24 88.3042 166.937 90.0418 170.984 91.2762C174.976 92.4916 179.103 93.555 183.257 94.4381C186.238 95.1123 189.112 95.7199 191.797 96.2612C194.465 96.8024 196.81 97.4861 198.771 98.2836C200.696 99.0717 202.262 99.9928 203.435 101.028C204.482 101.949 204.993 103.126 204.993 104.607C204.993 107.532 203.766 110.001 201.233 112.156C198.681 114.33 194.733 115.422 189.505 115.422C184.277 115.422 179.963 114.255 176.185 111.966C172.416 109.668 169.39 106.345 167.188 102.072L166.794 101.303L144.691 111.852L145.121 112.745C149.006 120.787 154.583 127.016 161.7 131.279C168.79 135.524 177.814 137.679 188.521 137.679C195.485 137.679 201.546 136.654 206.541 134.631C211.536 132.609 215.744 129.95 219.038 126.731C222.342 123.503 224.803 119.942 226.379 116.135C227.955 112.327 228.751 108.605 228.751 105.063C228.751 99.8219 227.686 95.3876 225.582 91.8744L225.564 91.8459Z" fill="#1550E5"/>
<path d="M395.771 34.1815C369.076 34.1815 347.43 57.1408 347.43 85.4554C347.43 113.77 369.076 136.729 395.771 136.729C422.466 136.729 444.112 113.77 444.112 85.4554C444.112 57.1408 422.466 34.1815 395.771 34.1815ZM395.771 111.092C382.423 111.092 371.6 99.6127 371.6 85.4554C371.6 71.2981 382.423 59.8185 395.771 59.8185C409.118 59.8185 419.941 71.2981 419.941 85.4554C419.941 99.6127 409.118 111.092 395.771 111.092Z" fill="#1550E5"/>
<path d="M333.627 70.2632C327.522 49.3643 309.161 34.1815 287.444 34.1815C260.749 34.1815 239.103 57.1408 239.103 85.4554C239.103 113.77 260.749 136.729 287.444 136.729C307.443 136.729 324.595 123.844 331.944 105.481L308.409 98.198C304.238 105.899 296.423 111.092 287.444 111.092C275.009 111.092 264.768 101.122 263.425 88.304H335.713C335.758 87.364 335.785 86.4145 335.785 85.4554C335.785 80.1666 335.033 75.0677 333.627 70.2632ZM267.364 70.2632C271.787 63.5406 279.136 59.1443 287.444 59.1443C295.751 59.1443 303.11 63.5406 307.532 70.2632H267.364Z" fill="#1550E5"/>
<path d="M37.1153 0C17.1074 0 0.88623 16.2414 0.88623 36.2743V114.425L21.6461 93.6481C23.3112 91.9809 25.4059 91.0218 27.5634 90.7529C22.3981 83.3134 19.3633 74.2785 19.3633 64.5354C19.3633 39.1156 39.9441 18.5091 65.3322 18.5091C90.7202 18.5091 111.301 39.1156 111.301 64.5354C111.301 89.9552 90.7202 110.562 65.3322 110.562C55.467 110.562 46.3359 107.443 38.852 102.145C38.5744 104.278 37.6166 106.349 35.9783 107.998L14.941 129.062H93.5581C113.566 129.062 129.787 112.82 129.787 92.7876V0H37.1153Z" fill="#1550E5"/>
<path d="M65.3397 33.8544C48.4113 33.8544 34.6968 47.595 34.6968 64.5356C34.6968 81.4761 48.4203 95.2168 65.3397 95.2168C82.2591 95.2168 95.9826 81.4761 95.9826 64.5356C95.9826 58.4316 94.1922 52.7489 91.1217 47.9625C88.9374 51.1176 85.3028 53.1881 81.1849 53.1881C74.5066 53.1881 69.0996 47.7743 69.0996 41.0877C69.0996 38.6138 69.8426 36.3103 71.1138 34.4011C69.2428 34.0426 67.3092 33.8454 65.3308 33.8454L65.3397 33.8544Z" fill="#1550E5"/>
</g>
<defs>
<clipPath id="clip0_3653_2432">
<rect width="764.73" height="137.651" fill="white" transform="translate(0.88623)"/>
</clipPath>
</defs>
</svg>
