<svg width="27" height="26" viewBox="0 0 27 26" fill="none" xmlns="http://www.w3.org/2000/svg">
<path d="M7.99246 -0.00231934C4.06797 -0.00231934 0.88623 3.18339 0.88623 7.11279V22.4418L4.95822 18.3665C5.28483 18.0395 5.69571 17.8514 6.11889 17.7986C5.10572 16.3394 4.51046 14.5672 4.51046 12.6561C4.51046 7.67012 8.54734 3.6282 13.5271 3.6282C18.5069 3.6282 22.5438 7.67012 22.5438 12.6561C22.5438 17.6422 18.5069 21.6841 13.5271 21.6841C11.5921 21.6841 9.80107 21.0723 8.33311 20.0332C8.27868 20.4516 8.0908 20.8578 7.76946 21.1813L3.64303 25.3129H19.0636C22.9881 25.3129 26.1698 22.1271 26.1698 18.1977V-0.00231934H7.99246Z" fill="white"/>
<path d="M13.5286 6.63811C10.2081 6.63811 7.51807 9.33331 7.51807 12.6562C7.51807 15.979 10.2099 18.6742 13.5286 18.6742C16.8473 18.6742 19.5391 15.979 19.5391 12.6562C19.5391 11.4589 19.188 10.3442 18.5857 9.40539C18.1572 10.0242 17.4443 10.4304 16.6366 10.4304C15.3267 10.4304 14.2661 9.36847 14.2661 8.05691C14.2661 7.57167 14.4118 7.11984 14.6612 6.74536C14.2942 6.67503 13.9149 6.63635 13.5268 6.63635L13.5286 6.63811Z" fill="white"/>
</svg>
